<?xml version="1.0" encoding="UTF-8" standalone="no"?>
<!DOCTYPE svg PUBLIC "-//W3C//DTD SVG 1.1//EN" "http://www.w3.org/Graphics/SVG/1.1/DTD/svg11.dtd">
<svg width="100%" height="100%" viewBox="0 0 512 512" version="1.1" xmlns="http://www.w3.org/2000/svg" xmlns:xlink="http://www.w3.org/1999/xlink" xml:space="preserve" xmlns:serif="http://www.serif.com/" style="fill-rule:evenodd;clip-rule:evenodd;stroke-linejoin:round;stroke-miterlimit:2;">
    <path id="Base" d="M256,0C397.29,0 512,114.71 512,256C512,397.29 397.29,512 256,512C114.71,512 0,397.29 0,256C0,114.71 114.71,0 256,0ZM256,53.006C143.944,53.006 53.006,143.944 53.006,256C53.006,368.056 143.944,458.994 256,458.994C368.056,458.994 458.994,368.056 458.994,256C458.994,143.944 368.056,53.006 256,53.006ZM338.425,351.685C334.988,351.685 332.859,350.621 329.667,348.739C278.591,317.962 219.166,316.653 160.478,328.685C157.286,329.503 153.112,330.813 150.738,330.813C142.798,330.813 137.805,324.51 137.805,317.88C137.805,309.45 142.798,305.439 148.937,304.129C215.974,289.314 284.485,290.624 342.927,325.575C347.92,328.767 350.867,331.632 350.867,339.08C350.867,346.529 345.055,351.685 338.425,351.685ZM360.444,297.99C356.187,297.99 353.322,296.108 350.376,294.552C299.218,264.267 222.932,252.071 155.076,270.488C151.147,271.552 149.019,272.616 145.336,272.616C136.577,272.616 129.456,265.495 129.456,256.737C129.456,247.978 133.713,242.167 142.143,239.793C164.898,233.409 188.144,228.661 222.195,228.661C275.317,228.661 326.639,241.84 367.074,265.904C373.704,269.833 376.323,274.908 376.323,282.029C376.241,290.869 369.366,297.99 360.444,297.99ZM385.818,235.619C381.562,235.619 378.942,234.555 375.259,232.427C316.98,197.639 212.782,189.29 145.336,208.116C142.389,208.935 138.706,210.245 134.777,210.245C123.972,210.245 115.705,201.814 115.705,190.927C115.705,179.795 122.581,173.493 129.947,171.365C158.759,162.934 191.009,158.923 226.124,158.923C285.876,158.923 348.493,171.365 394.249,198.049C400.633,201.732 404.808,206.807 404.808,216.547C404.808,227.679 395.804,235.619 385.818,235.619Z"/>
</svg>
