<?xml version="1.0" encoding="UTF-8" standalone="no"?><!DOCTYPE svg PUBLIC "-//W3C//DTD SVG 1.1//EN" "http://www.w3.org/Graphics/SVG/1.1/DTD/svg11.dtd"><svg width="512px" height="512px" version="1.1" xmlns="http://www.w3.org/2000/svg" xmlns:xlink="http://www.w3.org/1999/xlink" xml:space="preserve" xmlns:serif="http://www.serif.com/" style="fill-rule:evenodd;clip-rule:evenodd;stroke-linejoin:round;stroke-miterlimit:2;"><path id="TikTok" d="M256,0C397.29,0 512,114.71 512,256C512,397.29 397.29,512 256,512C114.71,512 0,397.29 0,256C0,114.71 114.71,0 256,0ZM360.325,164.271C358.161,163.15 356.054,161.926 354.014,160.598C348.078,156.674 342.637,152.05 337.806,146.827C325.717,132.994 321.203,118.963 319.538,109.14L319.604,109.14C318.215,100.983 318.792,95.707 318.879,95.707L263.818,95.707L263.818,308.604C263.818,311.465 263.818,314.288 263.698,317.083C263.698,317.429 263.665,317.751 263.645,318.122C263.645,318.278 263.645,318.435 263.612,318.596L263.612,318.715C263.031,326.357 260.582,333.736 256.481,340.207C252.38,346.674 246.753,352.037 240.092,355.825C233.151,359.774 225.299,361.843 217.31,361.835C191.66,361.835 170.869,340.916 170.869,315.084C170.869,289.252 191.66,268.333 217.31,268.333C222.166,268.329 226.993,269.096 231.609,270.6L231.675,214.538C217.661,212.728 203.419,213.841 189.858,217.811C176.293,221.78 163.701,228.515 152.868,237.592C143.38,245.84 135.404,255.675 129.295,266.664C126.97,270.67 118.203,286.775 117.139,312.908C116.472,327.738 120.927,343.109 123.05,349.457L123.05,349.593C124.386,353.331 129.563,366.093 137.996,376.855C144.798,385.486 152.835,393.067 161.846,399.352L161.846,399.221L161.978,399.352C188.634,417.464 218.184,416.277 218.184,416.277C223.3,416.071 240.438,416.277 259.898,407.052C281.485,396.83 293.772,381.595 293.772,381.595C301.624,372.494 307.865,362.119 312.234,350.92C317.213,337.825 318.879,322.116 318.879,315.838L318.879,202.893C319.546,203.293 328.441,209.175 328.441,209.175C328.441,209.175 341.257,217.39 361.252,222.74C375.6,226.545 394.928,227.349 394.928,227.349L394.928,172.692C388.156,173.426 374.405,171.291 360.325,164.271Z"/></svg>