<?xml version="1.0" encoding="UTF-8" standalone="no"?>
<!DOCTYPE svg PUBLIC "-//W3C//DTD SVG 1.1//EN" "http://www.w3.org/Graphics/SVG/1.1/DTD/svg11.dtd">
<svg width="100%" height="100%" viewBox="0 0 512 512" version="1.1" xmlns="http://www.w3.org/2000/svg" xmlns:xlink="http://www.w3.org/1999/xlink" xml:space="preserve" xmlns:serif="http://www.serif.com/" style="fill-rule:evenodd;clip-rule:evenodd;stroke-linejoin:round;stroke-miterlimit:2;">
    <path id="Amazon-Music" d="M256,0C397.384,0 512,114.616 512,256C512,397.384 397.384,512 256,512C114.616,512 0,397.384 0,256C0,114.616 114.616,0 256,0ZM256,53C143.886,53 53,143.886 53,256C53,368.114 143.886,459 256,459C368.114,459 459,368.114 459,256C459,143.886 368.114,53 256,53ZM369.76,244.93c-36.58,15.44 -76.51,23.15 -112.75,23.15 -53.69,0 -105.7,-14.77 -147.65,-39.26 -0.67,-0.34 -1.34,-0.67 -2.01,-0.67 -2.35,0 -3.69,2.68 -1.34,5.03 38.93,35.23 90.6,56.38 147.65,56.38 40.94,0 88.26,-12.75 120.81,-36.91 5.7,-4.03 1.01,-10.07 -4.7,-7.72ZM383.85,276.47C401.3,261.7 406,231.17 402.31,226.47 400.63,224.46 392.58,222.44 382.51,222.44c-10.74,0 -23.49,2.35 -33.22,9.06 -3.02,2.01 -2.35,4.7 0.67,4.36 10.4,-1.34 33.89,-4.03 38.26,1.34 4.03,5.37 -4.7,27.52 -8.72,37.25 -1.01,3.02 1.34,4.03 4.36,2.01Z"/>
</svg>
