<?xml version="1.0" encoding="UTF-8" standalone="no"?>
<!DOCTYPE svg PUBLIC "-//W3C//DTD SVG 1.1//EN" "http://www.w3.org/Graphics/SVG/1.1/DTD/svg11.dtd">
<svg width="100%" height="100%" viewBox="0 0 512 512" version="1.1" xmlns="http://www.w3.org/2000/svg" xmlns:xlink="http://www.w3.org/1999/xlink" xml:space="preserve" xmlns:serif="http://www.serif.com/" style="fill-rule:evenodd;clip-rule:evenodd;stroke-linejoin:round;stroke-miterlimit:2;">
    <path id="Apple-Music" serif:id="Apple Music" d="M256,0C397.29,0 512,114.71 512,256C512,397.29 397.29,512 256,512C114.71,512 0,397.29 0,256C0,114.71 114.71,0 256,0ZM307.227,110.152C319.542,95.541 328.254,75.267 328.254,54.993C328.254,52.182 328.016,49.331 327.501,47.034C307.465,47.787 283.628,60.379 269.254,77.049C257.969,89.878 247.436,110.152 247.436,130.703C247.436,133.792 247.951,136.88 248.188,137.87C249.455,138.108 251.514,138.385 253.573,138.385C271.551,138.385 294.16,126.347 307.227,110.152ZM399.885,182.021C373.196,143.77 332.649,142.741 321.364,142.741C291.587,142.741 267.195,160.955 251.554,160.955C235.121,160.955 213.303,143.77 187.13,143.77C137.871,143.77 87.82,184.595 87.82,261.571C87.82,309.563 106.312,360.128 129.199,392.677C148.958,420.395 166.143,442.966 190.773,442.966C215.402,442.966 226.172,426.81 256.464,426.81C287.548,426.81 294.477,442.451 321.403,442.451C348.329,442.451 366.029,418.099 382.977,393.707C401.983,365.989 409.942,338.786 410.18,337.519C408.636,337.004 357.041,316.215 357.041,257.453C357.041,206.65 397.588,183.803 399.885,182.021Z"/>
</svg>
