<?xml version="1.0" encoding="UTF-8" standalone="no"?>
<!DOCTYPE svg PUBLIC "-//W3C//DTD SVG 1.1//EN" "http://www.w3.org/Graphics/SVG/1.1/DTD/svg11.dtd">
<svg width="100%" height="100%" viewBox="0 0 512 512" version="1.1" xmlns="http://www.w3.org/2000/svg" xmlns:xlink="http://www.w3.org/1999/xlink" xml:space="preserve" xmlns:serif="http://www.serif.com/" style="fill-rule:evenodd;clip-rule:evenodd;stroke-linejoin:round;stroke-miterlimit:2;">
    <path id="YouTube-Music" d="M256,0C397.384,0 512,114.616 512,256C512,397.384 397.384,512 256,512C114.616,512 0,397.384 0,256C0,114.616 114.616,0 256,0ZM256,53C143.886,53 53,143.886 53,256C53,368.114 143.886,459 256,459C368.114,459 459,368.114 459,256C459,143.886 368.114,53 256,53ZM212,168L212,344L360,256L212,168Z"/>
</svg>
