<?xml version="1.0" encoding="UTF-8" standalone="no"?>
<!DOCTYPE svg PUBLIC "-//W3C//DTD SVG 1.1//EN" "http://www.w3.org/Graphics/SVG/1.1/DTD/svg11.dtd">
<svg width="100%" height="100%" viewBox="0 0 512 512" version="1.1" xmlns="http://www.w3.org/2000/svg" xmlns:xlink="http://www.w3.org/1999/xlink" xml:space="preserve" xmlns:serif="http://www.serif.com/" style="fill-rule:evenodd;clip-rule:evenodd;stroke-linejoin:round;stroke-miterlimit:2;">
    <path id="YouTube" d="M256,0C397.29,0 512,114.71 512,256C512,397.29 397.29,512 256,512C114.71,512 0,397.29 0,256C0,114.71 114.71,0 256,0ZM438.413,164.355C434.026,147.962 421.143,135.081 404.751,130.693C375.071,122.732 255.999,122.732 255.999,122.732C255.999,122.732 136.93,122.732 107.248,130.693C90.856,135.081 77.974,147.962 73.586,164.355C65.625,194.036 65.625,256 65.625,256C65.625,256 65.625,317.964 73.586,347.646C77.974,364.038 90.856,376.92 107.248,381.307C136.93,389.268 255.999,389.268 255.999,389.268C255.999,389.268 375.071,389.268 404.751,381.307C421.143,376.92 434.026,364.038 438.413,347.646C446.375,317.964 446.375,256 446.375,256C446.375,256 446.343,194.036 438.413,164.355ZM217.889,313.111L217.889,198.899L316.806,256.005L217.889,313.111Z"/>
</svg>
