<?xml version="1.0" encoding="utf-8"?>
<!-- Generator: Adobe Illustrator 28.4.1, SVG Export Plug-In . SVG Version: 6.00 Build 0)  -->
<svg version="1.1" id="Lacco" xmlns="http://www.w3.org/2000/svg" xmlns:xlink="http://www.w3.org/1999/xlink" x="0px" y="0px"
	 viewBox="0 0 3000 3000" style="enable-background:new 0 0 3000 3000;" xml:space="preserve">
<g>
	<path d="M1190.29,1569.18c-21.49,16.03-46.2,30.02-62.1,50.65c-18.57,24.09-29.29,54.25-43.25,81.85
		c-1.09,2.15-0.97,4.92-2.12,11.44c43-16.06,83.93-31.35,124.7-46.57c1.7,4.18,0.93,2.27,2.63,6.45
		c-38.06,16.57-78.89,28.55-106.43,64.57c11.34-2.69,22.69-5.38,34.03-8.07c1.19,3.15,0.83,2.19,2.02,5.34
		c-23.95,12.77-47.93,25.49-71.85,38.33c-6.37,3.42-13.34,6.32-18.53,11.09c-3.84,3.53-7.94,10.37-6.93,14.51
		c0.85,3.46,8.76,6.68,13.87,7.29c9.67,1.14,19.56,0.33,29.58,3.02c-8.96,1.38-17.87,3.24-26.88,4.04
		c-25.78,2.28-29.91,7.93-24.79,25.45c-12.23,26.55-23.63,47.63-31.83,69.89c-15.61,42.38-29.28,85.48-44.04,128.19
		c-2.72,7.88-6.8,15.3-10.26,22.93c-2.65-0.77-5.29-1.54-7.94-2.31c1.49-10.4,2.8-20.82,4.52-31.18c1.73-10.4,4.04-20.69,5.77-31.09
		c4.56-27.36-9.69-40.53-37.01-34.3c-5.51,1.26-10.92,2.94-20.48,5.54c2.77-8.89,5.54-14.04,5.8-19.31
		c0.73-15.05,1.51-30.28-0.32-45.11c-0.4-3.22-12.1-7.99-17.8-7.09c-23.33,3.71-47.1,7.12-69.36,14.64
		c-95.43,32.26-190.48,65.66-285.33,99.58c-8.81,3.15-18.48,11.52-22.16,19.92c-10.24,23.42-17.3,48.21-26.09,72.28
		c-3.74,10.25-3.91,20.64-22.83,19.37c-11.68-0.79-25.38,16.38-36.74,27.01c-8.5,7.95-14.72,18.35-24.44,30.85
		c11.41-35.81,21.65-67.93,31.88-100.04c-2.08-1.59-2.09-1.59-4.17-3.18c-4.9,3.17-9.68,6.27-16.58,10.74
		c2.13-15.46,3.76-28.93,5.89-42.31c1.81-11.33-3.8-14.96-13.54-12.62c-11.49,2.76-22.49,7.63-34.01,10.2
		c-22.97,5.14-46.16,9.33-69.25,13.91c-1.29-3.87-0.88-2.65-2.17-6.52c5.83-2.82,12.04-5.05,17.41-8.58
		c18.4-12.1,38.29-22.73,54.22-37.57c15.68-14.61,13.02-18.87-7.96-24.19c-2.94-0.75-5.59-2.65-11.8-5.69
		c6.77-5.3,11.03-9.89,16.28-12.48c9.43-4.65,19.19-9.02,29.28-11.85c19.26-5.41,30.03-18,39.39-35.43
		c89.61-166.86,160.25-342.4,238.14-514.65c30.81-68.15,55.93-137.64,76.82-209.17c6.64-22.73,19.09-43.76,32.95-63.92
		c-1.38,8.07-2.76,16.13-4.14,24.2c2.96,1.04,2.23,0.78,5.19,1.82c19.68-35.49,39.36-70.99,61.81-111.5
		c2.21,15.48,3.54,24.83,4.88,34.18c2.9,0.41,2.66,0.37,5.56,0.78c6.23-13.97,11.66-28.36,18.84-41.81
		c23.22-43.47,45.63-87.48,71.26-129.51c15.72-25.79,36.75-48.33,57.21-74.68c-19.37,49.53-37.97,97.07-56.57,144.62
		c4.17,2.55,3.18,1.94,7.34,4.49c12.68-14.34,25.37-28.67,38.05-43.01c1.26,0.86,0.87,0.59,2.13,1.45
		c-9.77,19.12-19.49,38.26-29.31,57.35c-5.72,11.12-12.64,21.77-16.99,33.4c-2.59,6.92-4.69,18.59-1.03,22.46
		c12.06,12.74,4.64,22.76-1.2,33.36c-33.24,60.33-53.62,125.75-77.78,189.83c-18.28,48.47-45.26,93.62-67.47,140.67
		c-12.59,26.68-21.68,55.1-35.31,81.19c-23.07,44.13-47.98,87.33-73.05,130.37c-40.08,68.8-65.97,143.44-91.31,218.34
		c-1.69,5-2.06,13.08,0.8,16.21c2.61,2.86,10.76,2.21,15.94,0.93c66.4-16.37,133.1-31.76,198.84-50.51
		c24.21-6.91,46.97-20.51,68.87-33.62c52.01-31.12,103.74-62.81,154.14-96.44c13.19-8.8,21.39-25.06,31.73-38.13
		c-2.19-3.12-2.02-2.88-4.21-5.99c-12.91,4.37-25.82,8.74-38.73,13.11c-2.59-3.98-2.25-3.47-4.84-7.45
		c10.06-10.9,20.11-21.81,32.2-34.91c-15.92-7.48-29.91-14.05-43.9-20.62c0-3.76,0-4.28,0-8.04c31.19-14.6,62.6-28.77,93.46-44.05
		c10.2-5.05,22.36-10.9,27.84-19.91c29.76-48.89,58.65-98.37,86.02-148.64c29.29-53.79,56.57-108.68,84.73-163.08
		c1.21-2.34,3.34-4.54,3.64-6.97c4.89-39.9,30.44-67.13,61.24-86.88c20.15-12.91,36.34-28.62,50.63-47.61
		c1.93,1.18,3.87,2.35,5.81,3.53c-1.31,6.37-0.88,13.88-4.19,18.93c-24.78,37.75-32.01,81.14-44.82,123.29
		c-11.55,38.01-20.89,75.89-26.2,114.78c-4.44,32.48-6.84,65.48-6.81,98.24c0.02,22.92,6.16,26.09,28.87,21.66
		c12.76-2.49,25.11-7.14,38.87-11.18c-3.38,29.44-11.85,54.8-36.43,72.98c-3.26,2.41-2.93,11.68-1.86,17.33
		c0.91,4.82,5.26,8.99,8.09,13.45c-6.15,3.24-12.17,9-18.46,9.31c-34.25,1.68-35.81,1.25-35,35.82
		c1.05,45.24,4.83,90.42,7.63,138.88c4.37-4.68,7.65-7.2,9.59-10.51c2.3-3.92,4.38-8.4,4.94-12.84
		c10.92-85.75,57.95-158.18,87.35-237.09c7.9-21.2,18.71-40.32,39.3-52.86c7.38-4.49,12.72-13.27,17.45-21.04
		c41.09-67.45,92.59-126.41,149.39-180.68c13.88-13.26,32.36-22.3,49.86-31c15.23-7.57,59.16,18.3,61.32,35.25
		c0.63,4.94-2.2,11.01-5.05,15.55c-7.05,11.22-17.5,20.88-22.21,32.88c-18.27,46.56-34.82,93.8-52.09,140.76
		c-0.41,1.12-1.71,1.92-3.06,3.36c-8.07-3.6-13.01-22.31-25.75-6.7c-6.48,7.93-12.46,16.27-20.78,27.21
		c11.34-44.67,32.61-84.13,18.57-132.03c-7.97,5.86-14.46,9.13-18.95,14.18c-35.87,40.27-68.29,82.79-98.92,127.58
		c-39.95,58.43-54.55,124.75-77.28,188.85c-6,16.91-13.28,33.37-19,50.37c-2.96,8.79-4.64,17.96-5.23,27.21
		c-2.41,38.32-5.2,76.68-5.67,115.04c-0.24,19.41,2.37,39.34,7.05,58.2c5.7,22.96,32.43,35.75,56.07,33.22
		c52.15-5.59,92.1-30.69,125.74-69.96c39.18-45.72,73.79-94.07,101.13-147.87c9.8-19.29,16.49-45.81,49.03-38.49
		c2.2,0.49,7.29-8.09,9.73-13.09c13.58-27.82,26.55-55.93,40.17-83.72c4.24-8.64,7.93-17.62,21.82-15.61
		c4.2,0.61,11.82-8.96,14.76-15.3c11.62-25.09,20.78-51.38,33.36-75.95c6.6-12.9,18.27-23.24,27.85-34.57
		c7.16-8.46,16.09-15.77,21.76-25.09c38.29-62.93,86.3-118.09,138.07-169.77c18.65-18.62,43.4-31.14,62.71-44.6
		c12.62,4.4,22.19,8.06,31.95,11.09c29.38,9.11,31.17,25.27,13.41,49.51c-13.48,18.4-18.53,43.09-26.73,65.2
		c-11.21,30.2-21.75,60.64-32.87,90.87c-1.28,3.48-4.4,6.29-7.19,10.12c-37.32-25.33-32.79,20.83-51.52,27.68
		c15.42-41.66,34.36-83.76,23.51-136.43c-10.11,7.82-18.15,12.06-23.53,18.52c-34.05,40.86-67.45,81.76-96.89,126.72
		c-31.88,48.69-48.03,101.82-66.44,155.04c-9.68,27.98-19.5,55.91-29.1,83.91c-1.69,4.93-3.48,10.07-3.79,15.2
		c-2.88,47.85-6.64,95.71-7.43,143.6c-0.26,15.74,3.73,34.15,12.45,46.71c8.41,12.11,26.02,26.35,38.55,25.44
		c36.11-2.61,73.52-5.79,102.62-33.76c48.22-46.36,91.49-96.25,121.96-156.39c8.62-17.02,17.91-33.87,28.69-49.55
		c4.58-6.67,14.33-14.84,20.81-14.12c14.6,1.62,20.33-4.81,25.39-16.1c11.31-25.25,22.56-50.57,35.04-75.25
		c5.02-9.93,7.96-26.03,26.75-17.32c2.11,0.98,8.55-4.82,11.49-8.62c22.55-29.14,45.02-58.36,66.95-87.97
		c25.08-33.86,50.74-67.38,73.98-102.49c21.32-32.21,51.84-51.09,85.26-67.06c20.99-10.03,36.68-22.72,40.2-48.84
		c4.09-30.33,31.48-37.9,55.53-46.83c34.38-12.76,48.11-3.48,74.28,21.44c35.76,34.04,16.21,70.87,14.32,107.04
		c-0.79,15.23-6.16,30.2-9.24,45.33c-11.91,58.56-23.86,117.12-35.48,175.74c-2.17,10.93-4.48,22.22-3.97,33.22
		c1.68,36.27-9.02,68.18-28.11,98.76c-11.05,17.69-17.32,38.31-26.58,57.2c-5.91,12.05-13.05,23.55-20.17,34.95
		c-29.66,47.51-44.7,105.04-94.82,138.58c-2.69,1.8-5.51,4.14-6.98,6.91c-20.39,38.49-57.5,58.9-90.33,83.94
		c-14.19,10.83-28.58,19.01-47.81,20.58c-16.56,1.35-32.75,9.51-48.68,15.73c-17.44,6.8-26.66-2.9-35.22-15.4
		c-2.75-4.02-5.11-9.54-9.04-11.32c-44.65-20.29-55.41-60.3-56.3-102.95c-0.73-34.62,5.16-69.39,8.23-104.08
		c0.62-6.98,1.8-13.92,3.05-23.36c-5,1.78-8.13,1.88-9.18,3.41c-25.76,37.4-51.2,75.02-76.91,112.46
		c-16.62,24.2-34.19,47.78-50.24,72.35c-19.18,29.35-49.91,26.98-78.63,30.28c-9.68,1.11-19.61-0.12-29.32,0.8
		c-83.67,7.94-158.91-55.92-170.33-146.82c-3.42-27.22-1.61-55.09-2.26-82.65c-0.13-5.48-0.57-10.94-0.87-16.42
		c-3.05-0.83-2.94-0.8-5.99-1.62c-12.16,18.58-24.36,37.14-36.48,55.74c-8.61,13.22-17.1,26.51-25.67,39.75
		c-19.62,30.31-38.06,61.48-59.31,90.6c-13.45,18.43-28.55,38.16-47.6,49.23c-16.49,9.57-39.58,7.92-59.8,10.84
		c-4.44,0.64-9.24-1.14-13.67-0.47c-60.3,9.1-108.21-12.88-147.09-58.02c-1.9-2.21-4.67-3.67-8.11-6.3v95.7
		c-12.17-25.92-22.14-47.13-32.81-69.86c-25.44,12.57-26.93-13.49-38.33-26.02c-6.38,7-10.98,12.04-18.44,20.22
		c-2.63-8.01-5.35-13.29-6-18.82c-2.08-17.64-3.01-35.42-5.11-53.06c-2.66-22.37-10.19-29.17-34.49-28.86
		c2.85-23.47,4.92-46.64,8.61-69.53c6.29-38.94,15.72-77.48,19.9-116.62c4.17-39.04-3.79-57.89-40.76-54.14
		c-5.19,0.53-10.67-1.88-16.02-2.93l-4.47-7.56c5.98-3.58,11.97-7.17,17.97-10.73c13.15,1.55,22.35-3.23,29.14-18.06
		 M2437.18,1798.49c2.22,0.7,4.44,1.39,6.66,2.09c15.44-24.95,32.28-49.15,46.05-74.98c41.42-77.68,71.55-159.76,92.98-245.15
		c9.9-39.47,22.64-78.28,31.23-118.01c4.81-22.25,4.86-45.76,5-68.72c0.12-18.69-2.11-37.5-4.68-56.07
		c-1.51-10.93-9.5-11.67-17.76-6.35c-47.97,30.88-86.87,71.18-122.13,117.56c16.82,7.51,16.54,17.1,4.47,28.45
		c-48.72,45.81-88.84,98.16-125.44,154.3c-62.18,95.37-102.97,198.3-120.53,310.3c-5.81,37.05,6.3,70.49,34.57,96.48
		c4.41,4.05,12.03,8.55,16.95,7.45c27.27-6.14,52.11-15.11,68.37-41.97c24.19-39.96,51.77-77.88,77.98-116.61
		c0.95-1.4,2.75-2.23,4-3.2C2435.71,1789.14,2436.45,1793.82,2437.18,1798.49z M1261.54,1386.67c-2.28-0.51-4.56-1.03-6.85-1.54
		c-10.14,18.67-20.63,37.17-30.3,56.08c-7.18,14.04-25.72,26.77,6.73,39.36c17.63,6.84,25.92,3.75,31.12-7.31
		C1275.69,1444.65,1270.59,1415.25,1261.54,1386.67z M967.11,1755.8c26.53,8.93,45.08-6.93,46.5-37.35
		C996.03,1732.58,981.57,1744.19,967.11,1755.8z"/>
</g>
</svg>
